<svg viewBox="0 0 32 32" fill="none" xmlns="http://www.w3.org/2000/svg">
  <circle cx="16" cy="16" r="16" fill="#FF4500"/>
  <path d="M22 16c0-1.1-.9-2-2-2-.6 0-1.1.3-1.5.7-1.3-.9-3.1-1.5-5.1-1.6l.9-4.2 2.8.6c0 .8.7 1.5 1.5 1.5s1.5-.7 1.5-1.5-.7-1.5-1.5-1.5c-.6 0-1.1.4-1.3.9l-3.1-.7c-.1 0-.2 0-.3 0-.1.1-.1.2-.2.3l-.9 4.5c-2 .1-3.7.7-5.1 1.6-.4-.4-.9-.7-1.5-.7-1.1 0-2 .9-2 2 0 .8.5 1.5 1.1 1.8 0 .2-.1.4-.1.7 0 3.3 3.9 6 8.6 6s8.6-2.7 8.6-6c0-.2 0-.5-.1-.7.7-.3 1.1-1 1.1-1.8zM11 17.5c0-.8.7-1.5 1.5-1.5s1.5.7 1.5 1.5-.7 1.5-1.5 1.5-1.5-.7-1.5-1.5zm8.1 4.1c-1 1-3 1.1-3.6 1.1s-2.5-.1-3.6-1.1c-.1-.1-.1-.3 0-.5.1-.1.3-.1.5 0 .7.7 2.2.9 3.1.9s2.4-.2 3.1-.9c.1-.1.3-.1.5 0 .1.2.1.4 0 .5zm-.6-2.6c-.8 0-1.5-.7-1.5-1.5s.7-1.5 1.5-1.5 1.5.7 1.5 1.5-.7 1.5-1.5 1.5z" fill="white"/>
</svg>